<?xml version="1.0" encoding="utf-8"?>
<!-- Generator: Adobe Illustrator 16.0.0, SVG Export Plug-In . SVG Version: 6.00 Build 0)  -->
<!DOCTYPE svg PUBLIC "-//W3C//DTD SVG 1.1//EN" "http://www.w3.org/Graphics/SVG/1.1/DTD/svg11.dtd">
<svg version="1.1" id="Layer_1" xmlns="http://www.w3.org/2000/svg" xmlns:xlink="http://www.w3.org/1999/xlink" x="0px" y="0px"
	 width="1000px" height="1000px" viewBox="0 0 1000 1000" enable-background="new 0 0 1000 1000" xml:space="preserve">
<g>
	<defs>
		<rect id="SVGID_1_" width="1000" height="1000"/>
	</defs>
	<clipPath id="SVGID_2_">
		<use xlink:href="#SVGID_1_"  overflow="visible"/>
	</clipPath>
	<g clip-path="url(#SVGID_2_)">
		<defs>
			<rect id="SVGID_3_" width="1000" height="1000"/>
		</defs>
		<clipPath id="SVGID_4_">
			<use xlink:href="#SVGID_3_"  overflow="visible"/>
		</clipPath>
		<g opacity="0" clip-path="url(#SVGID_4_)">
			<g>
				<defs>
					<rect id="SVGID_5_" width="1000" height="1000"/>
				</defs>
				<clipPath id="SVGID_6_">
					<use xlink:href="#SVGID_5_"  overflow="visible"/>
				</clipPath>
				<rect clip-path="url(#SVGID_6_)" fill="#FFFFFF" width="1000" height="1000"/>
			</g>
		</g>
		<path clip-path="url(#SVGID_4_)" fill="#32373C" d="M500,186.667c42.309,0,83.341,8.282,121.957,24.615
			c18.562,7.851,36.467,17.57,53.217,28.885c16.596,11.212,32.202,24.089,46.386,38.273c14.185,14.184,27.062,29.791,38.273,46.386
			c11.315,16.75,21.034,34.655,28.885,53.217c16.334,38.616,24.615,79.649,24.615,121.957c0,42.309-8.281,83.341-24.615,121.958
			c-7.851,18.562-17.569,36.467-28.885,53.217c-11.212,16.596-24.089,32.202-38.273,46.386
			c-14.184,14.185-29.79,27.062-46.386,38.273c-16.75,11.315-34.655,21.034-53.217,28.885
			c-38.616,16.334-79.648,24.616-121.957,24.616c-42.308,0-83.341-8.282-121.957-24.616c-18.562-7.851-36.467-17.569-53.217-28.885
			c-16.595-11.212-32.202-24.089-46.386-38.273c-14.184-14.184-27.061-29.79-38.273-46.386
			c-11.315-16.75-21.034-34.655-28.885-53.217c-16.333-38.616-24.615-79.648-24.615-121.958c0-42.308,8.282-83.341,24.615-121.957
			c7.851-18.563,17.57-36.467,28.885-53.217c11.212-16.595,24.089-32.202,38.273-46.386c14.184-14.184,29.791-27.061,46.386-38.273
			c16.75-11.315,34.655-21.034,53.217-28.885C416.659,194.949,457.692,186.667,500,186.667 M500,166.667
			c-184.095,0-333.333,149.238-333.333,333.333c0,184.095,149.238,333.334,333.333,333.334
			c184.095,0,333.333-149.239,333.333-333.334C833.333,315.905,684.095,166.667,500,166.667"/>
		<path clip-path="url(#SVGID_4_)" fill="#32373C" d="M222.222,499.989c0,109.945,63.89,204.968,156.56,249.989L246.275,386.944
			C230.862,421.487,222.222,459.717,222.222,499.989 M687.523,485.98c0-34.34-12.335-58.108-22.899-76.605
			c-14.082-22.892-27.287-42.259-27.287-65.15c0-25.53,19.361-49.298,46.647-49.298c1.232,0,2.399,0.148,3.597,0.224
			C638.16,249.87,572.316,222.223,500,222.223c-97.049,0-182.421,49.795-232.091,125.197c6.522,0.207,12.667,0.337,17.877,0.337
			c29.048,0,74.035-3.531,74.035-3.531c14.966-0.877,16.735,21.122,1.776,22.891c0,0-15.053,1.763-31.789,2.639l101.15,300.884
			l60.797-182.31L448.48,369.755c-14.966-0.876-29.134-2.639-29.134-2.639c-14.974-0.884-13.22-23.768,1.762-22.891
			c0,0,45.863,3.531,73.156,3.531c29.048,0,74.042-3.531,74.042-3.531c14.974-0.877,16.735,21.122,1.77,22.891
			c0,0-15.068,1.763-31.79,2.639l100.386,298.592l28.656-90.801C680.06,537.863,687.523,509.748,687.523,485.98 M504.88,524.286
			l-83.355,242.173c24.894,7.324,51.212,11.318,78.476,11.318c32.348,0,63.379-5.583,92.249-15.749
			c-0.743-1.188-1.428-2.45-1.993-3.828L504.88,524.286z M743.759,366.732c1.193,8.846,1.867,18.337,1.867,28.561
			c0,28.177-5.278,59.864-21.129,99.49L639.658,740.08c82.583-48.146,138.12-137.614,138.12-240.091
			C777.778,451.695,765.437,406.293,743.759,366.732"/>
	</g>
</g>
</svg>
