<?xml version="1.0" encoding="utf-8"?>
<!-- Generator: Adobe Illustrator 16.0.0, SVG Export Plug-In . SVG Version: 6.00 Build 0)  -->
<!DOCTYPE svg PUBLIC "-//W3C//DTD SVG 1.1//EN" "http://www.w3.org/Graphics/SVG/1.1/DTD/svg11.dtd">
<svg version="1.1" id="Layer_1" xmlns="http://www.w3.org/2000/svg" xmlns:xlink="http://www.w3.org/1999/xlink" x="0px" y="0px"
	 width="128px" height="128px" viewBox="0 0 128 128" enable-background="new 0 0 128 128" xml:space="preserve">
<g>
	<path fill="#F5861F" stroke="#49321D" stroke-width="3" stroke-miterlimit="10" d="M103.755,76.669
		c0,15.355-8.611,28.698-21.277,35.458c-0.279,0.146-0.566,0.293-0.852,0.434c-5.424,2.74-11.551,4.275-18.039,4.275
		c-22.182,0-40.161-17.979-40.161-40.167c0-12.043,5.305-22.857,13.703-30.205c0.61-0.536,1.234-1.051,1.874-1.55
		c6.796-5.269,15.326-8.405,24.584-8.405C85.776,36.509,103.755,54.487,103.755,76.669z"/>
	<path fill="#F89B1F" d="M96.376,81.944c0,12.035-6.271,22.015-14.662,29.37c-5.424,2.739-12.117,4.798-18.598,4.5
		c-21.997-1.01-38.344-17.22-38.62-39.564c-0.148-12.04,5.654-22.198,14.052-29.545c5.415-2.727,11.187-4.921,17.66-4.921
		C78.397,41.784,96.376,59.763,96.376,81.944z"/>
	<path fill="#7E973C" stroke="#49321D" stroke-width="3" stroke-miterlimit="10" d="M104.573,17.655
		c-4.877,9.867-15.039,16.656-26.795,16.656c-4.842,0-9.411-1.146-13.453-3.188c4.877-9.868,15.046-16.656,26.802-16.656
		C95.964,14.467,100.532,15.612,104.573,17.655z"/>
	<line fill="none" stroke="#49321D" stroke-width="3" stroke-miterlimit="10" x1="63.59" y1="11.164" x2="63.59" y2="37.614"/>
	<circle fill="#5F4D3B" cx="82.569" cy="102.388" r="2.604"/>
	<circle fill="#5F4D3B" cx="87.775" cy="88.518" r="2.603"/>
	<circle fill="#5F4D3B" cx="77.363" cy="80.01" r="2.603"/>
	<circle fill="#5F4D3B" cx="87.775" cy="74.804" r="2.603"/>
	<circle fill="#5F4D3B" cx="69.468" cy="107.594" r="2.603"/>
</g>
</svg>
