<?xml version="1.0" encoding="utf-8"?>
<!-- Generator: Adobe Illustrator 25.2.0, SVG Export Plug-In . SVG Version: 6.00 Build 0)  -->
<svg version="1.1" id="Vrstva_1" xmlns="http://www.w3.org/2000/svg" xmlns:xlink="http://www.w3.org/1999/xlink" x="0px" y="0px"
	 viewBox="0 0 198.4 170.1" style="enable-background:new 0 0 198.4 170.1;" xml:space="preserve">
<style type="text/css">
	.st0{fill:#5780C0;}
	.st1{fill:#7E7F83;}
	.st2{fill:#21224B;}
</style>
<g>
	<g>
		<g>
			<path class="st0" d="M36.1,104.9l-4.5,14.9l-3.4,0l-2.9-10.1l-3.1,10.1l-3.3,0l-4.4-15l3.2,0l3,10.5l3.2-10.5l2.9,0l3,10.6
				l3.2-10.6L36.1,104.9z"/>
			<path class="st0" d="M46.2,116.7l-6.3,0l-1.2,3.2l-3.2,0l6.1-14.9l3.1,0l6,15l-3.3,0L46.2,116.7z M45.2,114l-2.1-5.7L41,114
				L45.2,114z"/>
			<path class="st0" d="M60.7,119.9l-2.6-4.2l-0.2,0l-2.7,0l0,4.2l-3.1,0l0.1-14.9l5.9,0c1.2,0,2.2,0.2,3.1,0.7
				c0.9,0.4,1.6,1.1,2,1.9c0.5,0.8,0.7,1.8,0.7,2.9c0,1.1-0.3,2.1-0.7,2.9c-0.5,0.8-1.2,1.4-2.1,1.8l3,4.8L60.7,119.9z M60,108.5
				c-0.5-0.5-1.2-0.7-2.1-0.7l-2.6,0l0,5.2l2.6,0c0.9,0,1.7-0.2,2.1-0.7c0.5-0.5,0.7-1.1,0.7-1.9C60.7,109.6,60.5,108.9,60,108.5z"
				/>
			<path class="st0" d="M74.9,120l-2.6-4.2l-0.2,0l-2.7,0l0,4.2l-3.1,0l0.1-14.9l5.9,0c1.2,0,2.2,0.2,3.1,0.7c0.9,0.4,1.6,1.1,2,1.9
				c0.5,0.8,0.7,1.8,0.7,2.9c0,1.1-0.3,2.1-0.7,2.9c-0.5,0.8-1.2,1.4-2.1,1.8l3,4.8L74.9,120z M74.2,108.5c-0.5-0.5-1.2-0.7-2.1-0.7
				l-2.6,0l0,5.2l2.6,0c0.9,0,1.7-0.2,2.1-0.7c0.5-0.5,0.7-1.1,0.7-1.9C74.9,109.6,74.7,109,74.2,108.5z"/>
			<path class="st0" d="M91,117.3l0,2.8l-10.5,0l0.1-14.9l10.2,0l0,2.8l-7.1,0l0,3.2l6.3,0l0,2.7l-6.3,0l0,3.5L91,117.3z"/>
			<path class="st0" d="M106,105.2l-0.1,14.9l-2.6,0l-6.7-9.1l0,9.1l-3.1,0l0.1-14.9l2.6,0l6.7,9.1l0-9.1L106,105.2z"/>
			<path class="st0" d="M127,105.3l-0.1,14.9l-3.1,0l0-6.1l-6.1,0l0,6.1l-3.1,0l0.1-14.9l3.1,0l0,5.9l6.1,0l0-5.9L127,105.3z"/>
			<path class="st0" d="M132.9,119.5c-1.1-0.7-2-1.6-2.6-2.8c-0.6-1.2-0.9-2.5-0.9-4c0-1.5,0.3-2.8,1-4c0.6-1.2,1.5-2.1,2.7-2.8
				c1.1-0.7,2.4-1,3.8-1c1.4,0,2.7,0.3,3.8,1c1.1,0.7,2,1.6,2.6,2.8c0.6,1.2,1,2.5,0.9,4c0,1.5-0.3,2.8-1,4
				c-0.6,1.2-1.5,2.1-2.7,2.8c-1.1,0.7-2.4,1-3.8,1C135.3,120.5,134.1,120.2,132.9,119.5z M138.9,117c0.6-0.4,1.2-1,1.5-1.7
				c0.4-0.7,0.6-1.5,0.6-2.5s-0.2-1.8-0.5-2.5c-0.4-0.7-0.9-1.3-1.5-1.7c-0.6-0.4-1.4-0.6-2.2-0.6c-0.8,0-1.5,0.2-2.2,0.6
				c-0.6,0.4-1.2,1-1.5,1.7s-0.6,1.5-0.6,2.5c0,0.9,0.2,1.7,0.5,2.5c0.4,0.7,0.9,1.3,1.5,1.7c0.6,0.4,1.4,0.6,2.2,0.6
				C137.5,117.6,138.3,117.4,138.9,117z"/>
			<path class="st0" d="M148,118.8c-1.1-1.2-1.6-2.9-1.6-5.1l0-8.4l3.1,0l0,8.2c0,2.7,1,4,3,4c1,0,1.7-0.3,2.2-1
				c0.5-0.6,0.8-1.7,0.8-3l0-8.2l3.1,0l0,8.4c0,2.2-0.6,3.9-1.6,5c-1.1,1.2-2.6,1.8-4.5,1.8C150.6,120.6,149.1,120,148,118.8z"/>
			<path class="st0" d="M163.1,120.2c-1-0.3-1.8-0.7-2.4-1.3l1.1-2.6c0.6,0.5,1.3,0.9,2.1,1.1c0.8,0.3,1.6,0.4,2.4,0.4
				c0.9,0,1.5-0.1,2-0.4c0.4-0.3,0.6-0.7,0.6-1.2c0-0.4-0.1-0.7-0.4-0.9s-0.6-0.4-1-0.6c-0.4-0.1-0.9-0.3-1.6-0.5
				c-1-0.3-1.9-0.5-2.5-0.8c-0.7-0.3-1.2-0.7-1.7-1.3c-0.5-0.6-0.7-1.4-0.7-2.4c0-0.9,0.2-1.7,0.6-2.4c0.4-0.7,1.1-1.3,1.9-1.7
				c0.9-0.4,1.9-0.6,3.1-0.6c0.9,0,1.7,0.1,2.5,0.4c0.8,0.2,1.5,0.6,2.2,1l-1,2.6c-1.2-0.8-2.5-1.2-3.7-1.2c-0.9,0-1.5,0.2-1.9,0.5
				c-0.4,0.3-0.6,0.7-0.6,1.2c0,0.5,0.2,0.9,0.7,1.1c0.5,0.3,1.2,0.5,2.2,0.7c1,0.3,1.9,0.5,2.5,0.8c0.7,0.3,1.2,0.7,1.7,1.3
				c0.5,0.6,0.7,1.4,0.7,2.4c0,0.9-0.2,1.6-0.7,2.3c-0.4,0.7-1.1,1.3-1.9,1.7c-0.9,0.4-1.9,0.6-3.2,0.6
				C165.1,120.7,164.1,120.5,163.1,120.2z"/>
			<path class="st0" d="M184.5,117.7l0,2.8l-10.5,0l0.1-14.9l10.2,0l0,2.8l-7.1,0l0,3.2l6.3,0l0,2.7l-6.3,0l0,3.5L184.5,117.7z"/>
		</g>
		<g>
			<path class="st1" d="M25.9,125.1L21.1,136l-1.1,0l-4.8-10.9l1.2,0l4.1,9.4l4.2-9.4L25.9,125.1z"/>
			<path class="st1" d="M35.1,135l0,1l-7.7,0l0-10.9l7.4,0l0,1l-6.3,0l0,3.9l5.6,0l0,1l-5.6,0l0,4L35.1,135z"/>
			<path class="st1" d="M40,126.2l-3.8,0l0-1l8.8,0l0,1l-3.8,0l0,9.9l-1.1,0L40,126.2z"/>
			<path class="st1" d="M54.4,135.1l0,1l-7.7,0l0-10.9l7.4,0l0,1l-6.3,0l0,3.9l5.6,0l0,1l-5.6,0l0,4L54.4,135.1z"/>
			<path class="st1" d="M64.5,136.2l-2.5-3.5c-0.3,0-0.6,0-0.9,0l-2.9,0l0,3.4l-1.1,0l0-10.9l4.1,0c1.4,0,2.5,0.3,3.3,1
				c0.8,0.7,1.2,1.6,1.2,2.7c0,0.8-0.2,1.6-0.7,2.1c-0.4,0.6-1,1-1.8,1.3l2.6,3.7L64.5,136.2z M63.6,131c0.6-0.5,0.9-1.1,0.9-2
				c0-0.9-0.3-1.6-0.8-2c-0.6-0.5-1.4-0.7-2.5-0.7l-2.9,0l0,5.4l2.9,0C62.2,131.7,63,131.5,63.6,131z"/>
			<path class="st1" d="M68.4,125.3l1.1,0l0,10.9l-1.1,0L68.4,125.3z"/>
			<path class="st1" d="M82.1,125.4l0,10.9l-0.9,0l-6.9-8.8l0,8.8l-1.1,0l0-10.9l0.9,0l7,8.8l0-8.8L82.1,125.4z"/>
			<path class="st1" d="M92.4,133.4l-6,0l-1.3,2.9l-1.2,0l5-10.8l1.1,0l4.9,10.9l-1.2,0L92.4,133.4z M92,132.5l-2.6-5.8l-2.6,5.8
				L92,132.5z"/>
			<path class="st1" d="M104.1,136.3l-2.5-3.5c-0.3,0-0.6,0-0.9,0l-2.9,0l0,3.4l-1.1,0l0-10.9l4.1,0c1.4,0,2.5,0.3,3.3,1
				s1.2,1.6,1.2,2.7c0,0.8-0.2,1.6-0.7,2.1c-0.4,0.6-1,1-1.8,1.3l2.6,3.7L104.1,136.3z M103.2,131.2c0.6-0.5,0.9-1.1,0.9-2
				c0-0.9-0.3-1.6-0.8-2c-0.6-0.5-1.4-0.7-2.5-0.7l-2.9,0l0,5.4l2.9,0C101.8,131.9,102.7,131.7,103.2,131.2z"/>
			<path class="st1" d="M111.5,132.6l0,3.8l-1.1,0l0-3.8l-4.3-7.1l1.2,0l3.7,6.1l3.8-6.1l1.1,0L111.5,132.6z"/>
			<path class="st1" d="M123.5,135.8c-0.9-0.5-1.5-1.1-2-2c-0.5-0.8-0.7-1.8-0.7-2.8c0-1,0.3-2,0.7-2.8c0.5-0.8,1.2-1.5,2-2
				c0.9-0.5,1.8-0.7,2.9-0.7c0.8,0,1.6,0.1,2.2,0.4c0.7,0.3,1.3,0.7,1.7,1.2l-0.7,0.7c-0.8-0.9-1.9-1.3-3.2-1.3
				c-0.9,0-1.6,0.2-2.3,0.6c-0.7,0.4-1.3,0.9-1.7,1.6c-0.4,0.7-0.6,1.4-0.6,2.3s0.2,1.6,0.6,2.3s0.9,1.2,1.6,1.6
				c0.7,0.4,1.5,0.6,2.3,0.6c1.3,0,2.4-0.4,3.2-1.3l0.7,0.7c-0.5,0.5-1.1,0.9-1.8,1.2c-0.7,0.3-1.4,0.4-2.2,0.4
				C125.3,136.5,124.4,136.3,123.5,135.8z"/>
			<path class="st1" d="M140.5,135.5l0,1l-7.7,0l0-10.9l7.4,0l0,1l-6.3,0l0,3.9l5.6,0l0,1l-5.6,0l0,4L140.5,135.5z"/>
			<path class="st1" d="M152.3,125.7l0,10.9l-0.9,0l-6.9-8.8l0,8.8l-1.1,0l0-10.9l0.9,0l7,8.8l0-8.8L152.3,125.7z"/>
			<path class="st1" d="M158,126.7l-3.8,0l0-1l8.8,0l0,1l-3.8,0l0,9.9l-1.1,0L158,126.7z"/>
			<path class="st1" d="M172.2,136.6l-2.5-3.5c-0.3,0-0.6,0-0.9,0l-2.9,0l0,3.4l-1.1,0l0-10.9l4.1,0c1.4,0,2.5,0.3,3.3,1
				c0.8,0.7,1.2,1.6,1.2,2.7c0,0.8-0.2,1.6-0.7,2.1c-0.4,0.6-1,1-1.8,1.3l2.6,3.7L172.2,136.6z M171.3,131.5c0.6-0.5,0.9-1.1,0.9-2
				c0-0.9-0.3-1.6-0.8-2c-0.6-0.5-1.4-0.7-2.5-0.7l-2.9,0l0,5.4l2.9,0C169.9,132.2,170.7,132,171.3,131.5z"/>
			<path class="st1" d="M183.6,135.7l0,1l-7.7,0l0-10.9l7.4,0l0,1l-6.3,0l0,3.9l5.6,0l0,1l-5.6,0l0,4L183.6,135.7z"/>
		</g>
	</g>
	<g>
		<path class="st2" d="M117.5,98.9c-0.6,0-1.1-0.1-1.7-0.2c-0.7-0.2-1.7-0.5-2.2-1.4c-0.3-0.4-0.4-0.9-0.3-1.5
			c0.1-0.6,0.3-1.1,0.7-1.4c0.4-0.3,0.8-0.4,1.1-0.5l0.1,0c0.4-0.1,0.7-0.2,1.1-0.3c0.7-0.2,1.4-0.3,2.2-0.4c0.3,0,0.4-0.1,0.6-0.2
			c0.2-0.1,0.4-0.3,0.5-0.6c0.3-0.5,0.4-1.1,0.4-1.6c-0.1-1-1.1-2-2.1-2.9c-1-0.9-2.2-1.8-3.4-2.6c-1.4-0.9-2.6-1.5-3.7-1.9
			c-0.6-0.2-1-0.9-0.7-1.6c0.2-0.5,0.6-0.8,1.1-0.8c0.1,0,0.3,0,0.4,0.1c1,0.4,1.6,1,2.1,1.6c0.4,0.4,0.8,0.8,1.2,1.1
			c1.3,0.9,2.5,1.9,3.6,2.9c0.6,0.6,1.1,1.1,1.6,1.8l0.2,0.2c0.5,0.6,1.1,1.5,1.1,2.4c0,0.2,0,0.3,0,0.4c0,0.6,0.1,1.1-0.4,1.8
			c-0.3,0.4-0.6,0.7-1,1c-0.4,0.3-1,0.5-1.4,0.5c-0.8,0.1-1.4,0.2-2.1,0.3l-0.3,0.1c-0.6,0.1-1.2,0.2-1.6,0.5
			c-0.2,0.2-0.4,0.8-0.1,1.2c0.2,0.4,0.7,0.7,1.4,0.9c0.6,0.2,1.2,0.2,1.8,0.2c0.8,0,1.5-0.1,2.3-0.4c1.2-0.4,2.4-1.3,3.2-2.5
			l0.1-0.2c0,0-1.6,3-3,3.6C119.5,98.7,118.5,98.9,117.5,98.9z"/>
		<path class="st2" d="M74.8,99.1c-0.5,0-1.1,0-1.7-0.2c-0.3-0.1-0.7-0.2-1.1-0.4c-0.4-0.2-0.7-0.6-0.8-1.1c-0.3-0.9-0.2-1.6,0-2.2
			c0.1-0.4,0.2-0.8,0.7-1.2c0.3-0.2,0.6-0.4,0.8-0.6c0.3-0.2,0.7-0.3,1-0.5c0.2-0.1,0.5-0.2,0.6-0.3c0.2-0.1,0.3-0.2,0.5-0.4
			l0.6-0.7c0.4-0.4,0.6-0.8,0.8-1.3c0.1-0.4,0.2-0.9,0.3-1.4l0-0.1c0.1-0.5,0.1-1.1,0.1-1.7c0-1-0.1-2.2-0.3-3.4
			c-0.3-2.1-0.9-4.2-1.8-6.7c-0.4-1.3-0.8-2.3-1.2-3.3c-0.4-1-1-2.3-1.3-3.5c0,0-0.4-1.4-0.5-1.7c-0.1-0.6-0.3-1.2-0.4-1.9
			c-0.2-1.2-0.3-2-0.5-4.5c-0.2-2.5,0.2-5.8,0.2-5.8c0.1-0.8,0.2-1.6,0.2-2.2c0.1-0.4,0.1-0.8,0.1-1c0-0.6,0-1.1,0-1.7
			c-0.1-1.3-0.2-2.3-0.5-3.1c-0.2-0.5-2.2-2-2.4-2.1c-1-0.7-3.2-2.3-3.2-2.3c-0.9-0.9-1.3-1.4-1.8-2.5l0-0.1c0,0-0.4-1-0.5-1.8
			c0-0.2,0-0.4,0-0.6c0-1.2,0.8-2.5,1.1-3c0.3-0.4,0.6-0.9,0.9-1.3c0.3-0.4,0.6-0.7,0.9-1c0.2-0.2,0.5-0.3,0.7-0.3
			c0.3,0,0.5,0.1,0.8,0.3c0.4,0.4,1.1,1.2,1.8,1.7c0.4,0.3,2.2,1.4,2.5,1.5c0.4,0.2,0.8,0.3,1.1,0.3c0.1,0,0.4,0,0.7-0.1
			c0.3-0.2,0.6-0.4,1-0.7c0.5-0.4,0.9-0.5,1.3-0.5c0.1,0,0.2,0,0.3,0c0.5,0,0.9,0,1.4,0.1c1.6,0.2,2.8,0.7,3.9,1.4
			c0.1,0.1,0.8,0.7,0.8,0.7l0.7,0.6c0.5,0.5,0.9,1,1.3,1.6c0.6,1,1,2.2,1.3,3.7c0.2,1.3,0,2.7-0.3,3.9l-0.1,0.6
			c-0.2,1.1-0.6,2.5-0.4,3.4c0.1,0.5,0.3,1.1,0.4,1.6c0.2,0.7,0.4,1.1,0.6,1.6c0.5,0.9,1.2,1.8,2.1,2.4c0.7,0.5,1.6,0.9,2.7,1.3
			c1.7,0.5,2.8,0.6,4.3,0.8c1.8,0.2,3.3,0.3,4.8,0.4c0.4,0,0.8,0,1.2,0c0.6,0,11.9,0.1,13.3,0.2c1.6,0,3.3,0.1,5,0.2
			c0.5,0,1,0,1.5,0.1c0.7,0,1.4,0.1,2.1,0.1c0.4,0,0.8,0,1.3-0.1c1.6-0.1,3.1-0.5,4.7-1c0.7-0.2,1.5-0.5,2.2-0.8
			c0.3-0.1,0.5-0.2,0.8-0.3c0.5-0.2,1-0.4,1.4-0.6c0.8-0.3,1.6-0.6,2.4-0.9c0.1,0,0.2-0.1,0.4-0.1c0.1,0,0.2,0,0.3,0
			c0.1,0,0.1,0,0.2,0c0.1,0,0.1,0,0.2,0c0,0,0,0,0,0c0.1,0,0.3,0.1,0.4,0.2c0.1,0.1,0.2,0.2,0.2,0.4c0,0.1,0.1,0.3,0,0.4
			c0,0,0,0.2-0.1,0.2c-0.1,0.2-0.2,0.3-0.3,0.4l-0.1,0.1l-0.2,0.3c-0.3,0.3-0.6,0.6-1,0.9c-1.3,1.1-2.7,2-4.2,2.9
			c-0.8,0.5-1.6,0.8-2.4,1.1c-0.7,0.2-1.4,0.3-2,0.3c-0.2,0-0.4,0-0.7,0l-0.3,0c-0.6,0-0.7,0.1-0.7,0.2c0,0.2,0,0.3,0.2,0.5l0.1,0.1
			c0.2,0.2,0.5,0.5,0.7,0.8c0.3,0.4,0.6,0.7,0.8,1.1c0.2,0.3,0.5,0.9,0.7,1.3c0.3,0.9,0.3,1.8,0.3,2.6l0,0.1l-0.2,3.8
			c-0.1,3.1,0,6.8,0.4,7.1c0.4,0.3,0.4,0.4,1.1,0.7c0.5,0.2,0.7,0.3,0.9,0.3c0.2,0.1,0.4,0.1,0.7,0.3l0.1,0c0.7,0.3,1,0.5,1.4,1.1
			c0.3,0.7,0.4,1.2,0.5,1.9c0,0.6,0,1.2,0,1.8l0,0.9c0,0.9,0,1.8-0.1,2.7c-0.1,1.5-0.5,2.7-1,3.7c-0.5,0.9-1.4,2.1-2.8,2.7
			c-0.6,0.3-1.3,0.4-2,0.4c-1.2-0.1-2.2-0.9-1.7-1.1c0.6,0,0.9,0.1,1.3,0.1c0.7,0,1.4-0.1,1.9-0.4c0.9-0.4,1.5-1.2,2.1-2.3
			c0.8-1.5,0.8-3.3,0.7-5.2c0-0.5,0-1,0-1.5l0-0.4c0-1-0.1-2-0.4-2.7c-0.2-0.3-0.5-0.6-0.9-0.8c-0.1-0.1-0.5-0.2-0.8-0.3
			c-0.3-0.1-0.7-0.3-0.8-0.3c-1-0.5-1.4-1-1.5-2.3c-0.1-0.9-0.1-1.5-0.1-2l0-0.5c-0.2-2-0.2-4.1-0.3-6.1l-0.1-1.6
			c0-0.9-0.1-1.6-0.3-2.1c-0.1-0.3-0.2-0.4-0.5-0.8c-0.3-0.4-0.5-0.7-0.7-1l-0.3-0.4c-0.2-0.2-0.3-0.5-0.5-0.7l-0.4-0.5l-0.1-0.1
			c-0.1-0.2-0.2-0.3-0.4-0.7c-0.1-0.2-0.1-0.6,0-0.9c0.1-0.3,0.3-0.6,0.5-0.8c0.4-0.3,0.7-0.3,0.9-0.4c0.4-0.1,0.8-0.1,1.1-0.2
			l0.3,0c1.4-0.1,2.8-0.6,4.3-1.4c0.6-0.3,1.2-0.7,1.8-1.1c-1.2,0.4-2.3,0.7-3.3,0.9c-1.5,0.3-3,0.5-4.9,0.7c-0.4,0-0.8,0-1.2,0
			c-0.6,0-1.2,0-1.7-0.1c-0.6,0-1.1,0-1.7,0l-0.4,0c-1.5,0-3.1,0-4.6,0.1c-1.6,0-6.5,0.1-7.2,0.1s-4.2,0-4.2,0
			c-1.5,0-2.6-0.1-3.9-0.2c-1.7-0.2-3.1-0.4-4.6-0.6l-0.3,0c-1.5-0.2-2.6-0.4-3.8-0.8l-0.2,0c-1.4-0.4-2.5-0.9-3.5-1.5
			c-1.1-0.7-2-1.7-2.6-2.9l-0.1-0.2c-0.2-0.4-0.5-0.9-0.7-1.5c0,0-0.3-0.8-0.4-2c-0.1-1.2,0-2.3,0.3-3.2c0.1-0.3,0.1-0.6,0.2-0.8
			c0.2-1.1,0.6-2.9,0.4-3.9c-0.2-1-0.4-1.8-0.9-2.6l-0.2-0.3c-0.2-0.4-0.5-0.7-0.7-1c0,0-1-1-1.2-1.1c-0.8-0.6-2-1.5-2.9-1.7
			c-0.3-0.1-0.8-0.1-1.1-0.1c-0.4,0-0.7,0-1.2,0.2c-0.4,0.2-1.1,1.1-1.6,1.2c-0.2,0-0.5,0.1-0.6,0.1c-0.1,0-0.4,0-0.4,0
			c-0.4-0.1-0.7-0.1-1.1-0.3c-0.6-0.2-2.6-1.6-3.5-2.2c-0.2-0.1-0.6-0.5-0.7-0.3c-0.3,0.5-0.5,1.1-1,1.1c-0.1,0-0.1,0-0.2,0
			c-0.5-0.1-0.9-0.4-1.3-0.8c-0.3,0.5-0.4,0.7-0.7,1.4c-0.2,0.5-0.4,0.9-0.4,1c-0.1,0.3-0.1,0.9,0.1,1.1l0.3,0.5
			c0.2,0.2,0.3,0.4,0.4,0.6c0.1,0.1,0.2,0.2,0.2,0.4c0.6,0.9,1.8,2,1.8,2c-0.7-0.4-1.5-1.1-2.2-1.7c0,0-0.9-1.1-0.9-1.1
			c0.1,1.3,0.8,2.7,1.4,3.3c0.3,0.3,1.8,1.2,2.3,1.5c0.2,0.1,2.1,1.4,2.1,1.4c1,0.7,1.4,0.8,2.1,2.1c0.7,1.3,0.7,2.2,0.8,3.1
			c0,0-0.3,3.2-0.3,3.4c-0.1,0.4-0.3,3.3-0.3,3.9c-0.1,1-0.1,3.9,0.2,6.2c0.3,1.9,1,4.6,1.1,5c0.4,1.4,0.9,2.5,1.4,3.7
			c0.4,1,0.8,2.1,1.2,3.4c0.9,2.6,2,4.5,2.3,6.7c0.1,0.4,0.1,0.9,0.2,1.3c0.3,2,0.6,4-0.1,6.1c-0.3,0.7-0.6,1.1-1,1.6
			c-0.2,0.2-0.4,0.5-0.7,0.7c-0.3,0.3-0.8,0.5-1.2,0.7c-0.6,0.2-0.8,0.3-1.1,0.5l-0.4,0.2c-0.2,0.1-0.3,0.2-0.5,0.4
			c-0.1,0.1-0.2,0.3-0.3,0.5c-0.1,0.4-0.1,0.8,0,1.3c0.1,0.2,0.4,0.5,0.8,0.6c0.5,0.2,1.1,0.2,1.6,0.2c0.2,0,0.4,0,0.6,0
			c0.4,0,0.7,0,1-0.1c0.9-0.2,1.8-0.8,2.7-1.7c0.9-0.9,1.6-1.8,2-2.7c0.1-0.2,0.2-0.3,0.4-0.3h0l0.1,0c0.3,0.1,0.4,0.4,0.3,0.6
			c-0.5,1.1-1.1,2-2.1,3.1c-1,1.1-2.1,1.8-3.2,2.1c-0.6,0.2-1.3,0.2-1.8,0.2L74.8,99.1z"/>
		<path class="st2" d="M74.9,53.1c-0.3,0-0.8-0.2-1.1-0.5c-0.2-0.2-0.4-0.6-0.5-1c-0.2-1.2-0.2-2.2,0-3c0.3-1,0.9-1.9,1.7-2.5
			c0.4-0.4,0.8-0.7,1.2-0.8c0.1-0.1,0.3-0.1,0.4-0.2c0.3-0.1,0.5-0.2,0.7-0.4l0.1-0.1c0,0-0.1,1.3-1.2,2.5c-0.5,0.6-0.7,1.3-0.9,2
			c-0.1,0.3-0.1,0.7-0.2,1.1c0,0.2,0,0.3,0,0.6c0,0.3,0,0.4,0,0.6c0,0.1,0,0.2,0,0.2c0.2,0.1,0.6,0.1,1.1,0.1c0.2,0,0.4,0,0.5,0
			c0.8,0,1.4-0.1,1.8-0.4c0.5-0.3,0.6-0.5,0.6-0.6c0-0.1,0-0.2,0-0.3l0-0.1c0-0.1-0.1-0.3,0-0.5c0-0.2,0.1-0.5,0.2-0.7
			c0.1-0.2,0.3-0.4,0.6-0.5c0.1-0.1,0.3-0.1,0.4-0.1c0,0,0.1,0,0.5-0.3c0.5-0.3,0.6-0.6,0.6-1c-0.1-1.1-1.3-2.4-1.3-2.4l0.3,0.2
			c0.7,0.6,1.2,1.5,1.5,2.5l0,0.2c0.1,0.4,0.2,1-0.1,1.7c-0.1,0.2-0.3,0.4-0.5,0.5c-0.2,0.2-0.5,0.2-0.6,0.3c-0.1,0-0.1,0-0.2,0
			c0,0,0,0,0,0c0,0.3-0.1,0.6-0.3,0.9c-0.2,0.3-0.4,0.5-0.7,0.7c-0.2,0.1-0.4,0.2-0.5,0.3L79.1,52c-0.6,0.3-1.3,0.5-1.9,0.6
			c-0.2,0.1-0.5,0.1-0.7,0.2l-0.3,0.1c-0.3,0.1-0.6,0.2-1.1,0.2L74.9,53.1z"/>
	</g>
	<g>
		<path class="st0" d="M105.5,99c-0.2,0-0.4,0-0.5-0.1c-0.5-0.1-0.9-0.4-1.1-0.8l-0.1-0.2l0.2-0.2l0,0l0.1,0c0.1,0,0.2,0,0.2,0.1
			c0.3,0.5,0.8,0.6,1.1,0.6c0.2,0,0.5-0.1,0.7-0.1c0.3-0.1,0.6-0.4,0.9-0.6c0.3-0.2,0.5-0.5,0.7-0.8c0.5-0.9,0.3-2,0.1-3.1
			c-0.1-0.5-0.2-0.9-0.2-1.4c-0.2-1.5-0.1-3.3-0.1-5.1c0-1.7,0.2-3.3,0.5-5c0,0,0.4-1.5,0.6-2.2c0.3-0.8,0.5-1.3,1.2-2.2
			c0,0,0.6-0.7,0.8-0.9c0,0,0.3-0.4,0.3-0.5c0.1-0.2,0.1-0.3-0.1-0.5c-0.2-0.2-0.4,0-0.8,0.2s-0.8,0.8-1,1.1
			c-0.9,1.1-1.6,2.5-2.1,4.1c-0.4,1.4-0.7,3.3-0.8,5c-0.1,1.6-0.1,2.3,0.1,3.8c0.2,1,0.5,2.5,0.6,3.4c0.1,0.5,0.1,0.8,0.1,1.3
			c0,0.5,0,0.9-0.2,1.4c-0.1,0.3-0.4,0.6-0.7,0.7c-0.2,0.1-0.5,0.2-0.7,0.2c-0.4,0-0.7-0.1-0.9-0.3c-0.2-0.2-0.4-0.5-0.4-0.8
			c-0.1-0.8-0.2-1.6-0.3-2.5c-0.1-1.5,0-3.1,0.2-4.5l0-0.4c0.1-1.4-0.3-3-1.1-4.5c-0.7-1.5-1.6-2.9-2.6-3.9
			c-2.2-2.4-4.8-3.9-7.8-4.7c-0.4-0.1-0.8-0.3-1.2-0.5c-0.3-0.2-0.8-0.4-1.2-0.7c-0.4-0.3-0.7-0.6-1-0.9c-0.3-0.3-0.6-0.5-0.9-0.8
			c-0.6-0.6-1.2-1.2-1.4-1.9c-0.4-1.3-0.1-1.6,0-2.7c0.2-0.8,0.2-1.1,0.4-1.6c0.2-0.8,0.4-1.6,0.4-2.3c-0.2,0.2-0.4,0.3-0.6,0.5
			L86,65.3c-0.3,0.3-0.7,0.7-1.3,0.9c-0.2,0.1-0.4,0.1-0.6,0.1c-0.1,0-0.2,0-0.2,0c-0.1,0-0.3,0-0.4-0.1c-0.1,0-0.1,0-0.2,0
			c-0.1,0-0.1,0-0.2,0c-0.1,0-0.2,0-0.3,0c-0.1,0-0.1,0-0.2,0c-0.1,0-0.2,0-0.3,0l-0.2,0c-0.2,0-0.5-0.1-0.7-0.2
			c-0.1-0.1-0.2-0.2-0.2-0.2l-1.3-1.5c-0.3-0.3-0.5-0.6-0.8-0.9c-0.3-0.3-0.5-0.5-0.6-0.5L78.3,63c0,0.2-0.1,0.6,0,1l0,0.5
			c0,0.6,0.1,1.1,0.2,1.7l0.4,2.6c0,0.1,0.1,0.2,0.1,0.4l0.6,2.1c0.1,0.5,0.2,1,0.3,1.5c0.1,0.3,0.1,0.6,0.2,1
			c0.1,0.4,0.4,0.9,0.5,1.2c0.2,0.4,0.3,0.7,0.5,1.3c0,0.1,0.1,0.2,0.1,0.4c0,0.1,0.1,2.7,0.1,3c0,0.3,0.1,0.7,0.2,1
			c0.2,0.6,0.6,1.3,1,1.9c0.5,0.8,0.9,1.3,1.5,1.9c0.3,0.4,0.6,0.8,0.8,1.1l1.3,2.2c0,0,0.1,0.2,0.1,0.4c0,0,0,0.1,0,0.1l-0.1,5.2
			c0,0.2,0,0.5-0.1,0.7c0,0.2-0.1,0.4-0.1,0.6L86,95.2c0,0.1-0.1,0.3-0.2,0.3c-0.2,0.3-0.4,0.4-0.5,0.5l-0.9,0.5
			c-0.2,0.1-0.5,0.3-0.6,0.4c-0.1,0.1-0.1,0.3,0.1,0.4c0.1,0.1,0.2,0.1,0.4,0.2c0.1,0,0.2,0,0.4,0.1c0.2,0,0.3,0,0.4,0
			c0.3,0,0.5,0,0.8-0.1c0.4-0.1,0.8-0.2,1-0.3c0.3-0.1,0.5-0.4,0.6-0.7c0.3-0.7,0.6-1.5,0.9-2.2c0.2-0.8,0.4-1.5,0.6-2.3
			c0.1-0.6,0.3-1.2,0.4-1.8c0.1-0.2,0.2-0.8,0.2-0.8l0.2,0c0.2,0,0.3,0.2,0.3,0.3c0,0.2-0.1,0.4-0.1,0.7c-0.1,0.6-0.3,1.1-0.3,1.7
			c-0.1,0.8-0.2,1.7-0.5,2.5c-0.2,0.8-0.5,1.6-0.8,2.4c-0.2,0.5-0.6,0.9-1,1.1c-0.5,0.2-0.9,0.4-1.3,0.4c-0.4,0.1-0.8,0.1-1.2,0.1
			l-0.2,0c-0.2,0-0.4,0-0.6-0.1c-0.3-0.1-0.5-0.2-0.7-0.4c-0.6-0.4-0.7-1.2-0.4-1.8c0.1-0.3,0.4-0.4,0.6-0.5l0.6-0.4l0.5-0.3
			c0.2-0.1,0.3-0.2,0.3-0.2l0.1-0.4c0-0.2,0.1-0.4,0.1-0.6c0-0.2,0-0.3,0-0.5l0-5l-0.7-1.1c-0.1-0.2-0.3-0.4-0.4-0.7
			c-0.3-0.5-0.6-0.9-0.9-1.3c-0.6-0.5-1.1-1.3-1.6-2c-0.2-0.4-0.5-0.7-0.7-1.1c-0.2-0.4-0.4-0.8-0.6-1.2c-0.1-0.4-0.2-0.9-0.3-1.4
			c0-0.3,0-0.6,0-0.9c0-0.1,0.1-2.2,0.1-2.2c0-0.1,0-0.1,0-0.1c0-0.1,0-0.1-0.1-0.2l-0.1-0.5c-0.2-0.6-0.4-1.3-0.5-1.9
			c-0.1-0.3-0.1-0.7-0.2-1c-0.1-0.5-0.2-0.9-0.3-1.4l-0.6-2c0-0.1,0-0.1-0.1-0.2l-0.2-0.5c-0.1-0.1-0.1-0.2-0.2-0.4
			c0-0.1-0.1-0.2-0.1-0.2l0-0.2l-0.2-1.2c0-0.2-0.1-0.4-0.1-0.6c-0.1-0.6-0.3-1.2-0.3-1.9c0-0.5,0-1,0.1-1.4c0.1-0.3,0.2-0.7,0.6-1
			c0.3-0.2,0.6-0.3,0.9-0.3c0.1,0,0.2,0,0.3,0c0.4,0.1,0.7,0.3,0.9,0.5c0.2,0.2,0.3,0.3,0.5,0.5c0.3,0.3,0.6,0.6,0.9,0.9
			c0,0,1.3,1.4,1.3,1.5c0,0,0.1,0,0.1,0c0.1,0,0.2,0,0.3,0c0.1,0,0.2,0,0.3,0c0.1,0,0.3,0,0.4,0c0.1,0,0.3,0,0.4,0.1
			c0.1,0,0.1,0,0.2,0c0,0,0.1,0,0.1,0c0.1,0,0.2,0,0.2,0c0.2-0.1,0.4-0.2,0.7-0.5l1.2-1.1c0.2-0.2,0.4-0.4,0.7-0.6l0.1-0.1
			c0.2-0.1,0.4-0.3,0.7-0.4c0.1,0,0.2,0,0.3,0c0.2,0,0.3,0,0.5,0.1c0.2,0.1,0.4,0.3,0.5,0.6c0.1,0.3,0.1,0.5,0.1,0.7l0,0.3
			c-0.1,0.4-0.1,0.6-0.2,0.8c-0.2,0.5-0.4,0.7-0.5,1.1l-0.4,1c-0.1,0.2-0.2,0.6-0.2,0.8c0,0.2-0.1,0.4-0.2,0.6
			c-0.1,0.3-0.1,0.1-0.2,1.2l0,0.4l0,0.5c0,0.4,0.2,0.7,0.3,0.9c0.1,0.1,0.2,0.2,0.3,0.3l0.4,0.4c0.3,0.3,0.6,0.6,0.9,0.9
			c0.3,0.3,0.5,0.6,0.8,0.8c0.3,0.2,0.6,0.4,1,0.6c0.3,0.2,0.7,0.3,1.1,0.5c0.4,0.1,0.8,0.3,1.1,0.4c0.4,0.1,0.8,0.2,1.2,0.4
			c0.9,0.3,1.6,0.6,2.3,1c0.7,0.3,1.5,0.8,2.2,1.3c0.7,0.5,1.3,1.1,1.9,1.7c1.1,1.2,2,2.6,2.7,4.2c0.8,1.8,1.2,3.4,1.2,4.9l0,0.6
			c-0.1,1.5-0.2,2.8-0.1,4.2c0.1,0.8,0.2,1.6,0.3,2.4c0.1,0.3,0.2,0.3,0.4,0.3c0.2,0,0.5-0.1,0.5-0.2c0.1-0.3,0.1-0.7,0.1-1
			c0-0.4-0.1-0.7-0.2-1.1c-0.2-1-0.3-1.8-0.3-2.5l0-0.3c-0.1-1.5-0.2-3.1-0.1-4.6c0.2-3.9,1.3-7.1,3.2-9.6c0.3-0.3,0.6-0.7,1.1-1
			c0.2-0.1,0.5-0.2,0.9-0.2c0.4,0,0.7,0.1,1,0.3c0.3,0.2,0.7,0.6,0.6,1.1c0,0.4-0.2,0.7-0.4,0.9c-0.3,0.3-0.5,0.5-0.7,0.7l-0.2,0.2
			c-0.6,0.5-1,1.1-1.2,1.7c-0.2,0.7-0.4,1.4-0.6,2.2c-0.4,1.8-0.6,3.3-0.6,4.8c-0.1,1.7,0.1,3.3,0.2,4.8c0,0.5,0.1,0.9,0.2,1.4
			c0,0.3,0.1,0.7,0.1,1c0.1,0.7,0.1,1.7-0.5,2.6c-0.2,0.4-0.5,0.7-0.9,1c-0.3,0.2-0.7,0.5-1.1,0.6C106.1,98.9,105.8,99,105.5,99z
			 M82.3,64.8"/>
		<path class="st0" d="M94.9,99.5c-0.8,0-1.5-0.1-2.3-0.3c-0.2-0.1-0.4-0.1-0.6-0.2l-0.1,0c-0.2-0.1-0.3-0.1-0.5-0.3
			c-0.5-0.4-0.8-1.1-0.6-1.7c0.1-0.3,0.2-0.6,0.4-0.8c0.3-0.3,0.5-0.4,0.7-0.4c0.2-0.1,0.4-0.1,0.7-0.1c0.2,0,0.4,0,0.5,0l0.2,0
			c0.8,0,1.5,0.2,2.2,0.3l1.1,0.2c0.2,0,0.3,0.1,0.5,0.1c0,0,0.1,0,0.1,0c0.1,0,0.1,0,0.1,0c0,0,0,0,0,0c-0.1,0-0.2-0.1-0.3-0.1
			l-1-0.4l-1-0.4c-0.4-0.2-0.8-0.5-1-0.7c-0.5-0.5-1-1.1-1.4-1.9c-0.2-0.3-0.3-0.7-0.5-1.1c-0.1-0.4-0.2-0.8-0.3-1.2
			c-0.1-0.9,0-1.7,0.3-2.4c0.3-0.8,0.9-1.5,1.5-1.9c0.7-0.4,1.4-0.7,2.2-0.7l0.2,0l0.1,0.3c0,0.1-0.1,0.2-0.2,0.2
			c-1.3,0.4-2.4,1.3-2.6,2.5c-0.2,0.6-0.2,1.2-0.1,1.9c0,0.3,0.1,0.6,0.2,0.9l0.1,0.2c0.1,0.3,0.2,0.5,0.3,0.8
			c0.3,0.7,0.6,1.3,0.9,1.7c0.2,0.3,0.4,0.5,0.7,0.6l0.9,0.5l0.3,0.2c0.2,0.1,0.4,0.2,0.6,0.3c0.2,0.1,0.4,0.2,0.6,0.3
			c0.2,0.1,0.3,0.4,0.2,0.6c0,0.2,0,0.3-0.2,0.5c-0.2,0.3-0.6,0.3-0.8,0.3c0,0,0,0,0,0c-0.3,0-0.4,0-0.6,0L95.3,97
			c-0.4,0-0.8-0.1-1.2-0.2c-0.3-0.1-0.7-0.2-1.1-0.2c-0.2,0-0.4,0-0.6,0c-0.4,0-0.5,0-0.5,0.1c-0.2,0.1-0.4,0.4-0.4,0.5
			c0,0.2,0,0.5,0.1,0.6c0.1,0.1,0.4,0.2,0.8,0.3c0.2,0,0.4,0.1,0.5,0.1c0.6,0.1,1.2,0.1,1.9,0.2l1.8,0.1l0.8,0
			c0.6,0,1.2,0.1,1.7,0.1c0.1,0,0.3,0,0.4,0c0.4,0,0.8-0.1,1.4-0.2c0.3,0,0.9-0.3,1.1-0.4c0.2-0.1,0.3-0.4,0.4-0.7l0-0.2l0.2,0
			c0.1,0,0.2,0.1,0.3,0.2c0.1,0.5-0.1,0.9-0.4,1.3c-0.3,0.3-0.6,0.5-1.1,0.7c-0.7,0.2-1.5,0.3-2.2,0.4c-0.5,0-0.9,0-1.4,0
			c-0.3,0-0.5,0-0.8,0c-0.4,0-0.9,0-1.3,0C95.5,99.5,95.2,99.5,94.9,99.5z"/>
	</g>
</g>
</svg>
